<?xml version="1.0" encoding="utf-8"?>
<!-- Generator: Adobe Illustrator 19.2.0, SVG Export Plug-In . SVG Version: 6.00 Build 0)  -->
<svg version="1.1" xmlns="http://www.w3.org/2000/svg" xmlns:xlink="http://www.w3.org/1999/xlink" x="0px" y="0px"
	 viewBox="0 0 480 480" style="enable-background:new 0 0 480 480;" xml:space="preserve">
<style type="text/css">
	.st0{fill:#C2E48C;}
</style>
<g id="Ebene_1">
	<path class="st0" d="M325.7,300.3c-1.5,10.6-14.5,28-35.7,36.5c-10.3,4.4-20.8,5.6-28.8,5.2c-6.9-0.4-11.8-2-16.1-4.3
		c0,0.1-0.5,0.8-1.4,2.2c-0.1,0.1-0.1,0-0.1,0h0c-0.4,1-0.9,1.5-1.5,2.4c-2,2.9-4.7,7.4-8.3,12.3c-4.4,6.1-10.1,13.2-16.5,20.5
		c7.5-4.1,17.4-7.8,28.8-10.5c5.5-1.2,10.6-2,15.4-2.5c4.8-0.5,9.4-0.6,13.5-0.3c8.3,0.6,14.8,2.6,18.3,5.7
		c-4.1,9.9-21,24.4-43.8,28.4c-11.1,2.2-21.5,1.3-29.3-0.7c-6.7-1.7-11.8-4.5-14.8-7.5c-0.4,0.4-0.8,0.8-1.2,1.2
		c-12,11.6-25,22.3-35.5,29.6c-0.1,0.1-0.2,0.1-0.2,0.2c8.3-2.4,19-3.9,30.7-4.3c11.3,0,20.9,0.9,28.9,3.1
		c7.9,2.2,13.8,5.5,16.4,9.2c-6.6,8.9-26.8,19.6-50.2,18.9c-11.5-0.1-21.4-3.2-28.4-6.7c-6-3.1-10.2-6.9-12.4-10.4
		c-1.7,1.1-2.6,1.6-2.6,1.6l-3-4c0,0,0.9-0.6,2.6-1.6c-6.4-6.7-10-21.9-9.1-38.2c1.1-17.5,6.5-30,13.4-33.8
		c4.1,2.4,8.6,6.9,12.1,13.2c3.4,6.2,6.2,14.6,5.9,23.6c0,10.1-3.3,19-7.9,25.6c0.2-0.1,0.3-0.2,0.5-0.3c10.3-7.1,23.1-17.6,34.8-29
		c0.4-0.4,0.8-0.8,1.2-1.2c-8-5.1-15.6-19.1-18.9-35.3c-3.4-17.3-1.2-30.7,4.5-35.9c4.6,1.5,10.1,5,15.1,10.4c2.5,2.7,4.9,5.9,7,9.6
		c2.1,3.7,3.8,7.8,4.9,12.3c2.6,9.8,1.7,19.2-1,26.5c6.3-7.2,11.9-14.2,16.2-20.2c3.6-4.8,6.2-9.1,8.2-12c0.6-0.9,1.1-1.7,1.6-2.4
		c0.2-0.3,0.7-1.1,1.5-2.4c-9.2-3.5-20-15.5-27.2-30.5c-7.7-16.2-9.1-29.7-4.8-35.8c4.9,0.5,11.1,2.8,17.4,7.1
		c6.1,4.2,12.9,10.6,17.2,18.9c5.4,9.7,6.1,19.6,4.8,27.6c0.3-0.7,0.7-1.3,1-2c5.6-10.5,11.9-24.9,16.8-39.8c0.2-0.5,0.3-1,0.5-1.5
		c-9.7-1.4-23.5-11-34.5-24.1c-11.6-14.2-16.5-26.7-14-33.4c4.9-0.5,11.6,0.4,18.8,3.2c3.6,1.4,7.3,3.3,11.1,5.7
		c1.9,1.2,3.7,2.6,5.5,4.1c1.7,1.5,3.4,3.1,5,4.9c7.3,7.7,11.1,16.4,12.3,24c2.1-8.9,3.6-17.4,4.5-24.5c0.8-5.8,0.9-10.6,1.2-14
		c0.2-2.3,0.2-3.9,0.2-4.7c0-0.2-0.1-0.4-0.1-0.6c0,0,0,0,0,0h0.1c0,0,0.1-0.3,0.1-0.4c-9.6,1.9-25.7-4.7-41-15.8
		c-15.1-11.1-22.2-22.4-21.6-29.6c4.6-1.6,11.3-2.1,19.1-0.9c7.6,1.2,15.8,4.1,23.9,9.7c10.1,6.5,16.8,15.1,19.6,22.8
		c0-0.8-0.1-1.7-0.1-2.6c-0.4-11.6-2.3-27-5.7-42.2c-0.1-0.5-0.3-1-0.4-1.6c-9.4,2.8-26.5,0-43.1-7.2c-17.7-7.8-28.5-17.3-29.8-24.4
		c4.1-2.4,10.5-4.3,18.4-4.7c3.9-0.2,8.2,0,12.8,0.7c4.6,0.7,9.3,1.9,14,3.8c10.4,3.9,18.3,10.1,23.4,16.3c-2.8-8.8-5.8-17-8.7-23.6
		c-2.3-5.4-4.6-9.8-6-13c-1.4-3.1-2.4-4.9-2.4-4.9l0.6-0.3c-4.5-1-9.7-3.7-14.8-7.6c-6.4-4.5-12.4-10.9-18.2-18.5
		c-11.2-15.2-15.5-30.7-13.2-39.4c9.6-1.4,28,6.1,40.7,23.4c6.4,8.5,9.6,17.6,10.8,25.1c0.7,6.5,0,11.9-1.8,15.6l0.8-0.3
		c0,0,1,1.7,2.5,4.9c1.4,3.2,3.8,7.6,6.1,13.2c2.9,6.8,6,15.1,8.8,24c0.7-7.8,3.3-17.1,7.5-27c2.2-4.6,4.5-8.8,6.8-12.6
		c2.4-3.8,5.1-7.1,7.7-9.9c5.4-5.6,11.1-9.1,16-9.8c6.6,8.8,9.7,29.5-0.2,48.3c-4.6,9.3-11.5,16.3-17.9,20.7
		c-5.5,3.8-11,5.8-15.5,6.2c0.1,0.5,0.3,1.1,0.4,1.6c3.4,15.5,5.4,31.2,5.8,43c0,0.4,0,0.7,0.1,1.1c2.7-7.6,8.3-16.4,15.1-25.4
		c6.6-8.1,12.3-14.5,19.1-19c6.7-4.4,13.1-6.7,18.1-6.3c4.2,10,2.4,30.9-12.2,47.3c-6.9,8.2-15,13.5-22.3,16.4
		c-6.5,2.6-15.4,3.4-17.4,2.7c0,0,0,0,0,0h-0.2c0,0-0.2,0.3-0.2,0.8c0,0.2,0,0.5,0,0.7c0,0.9-0.1,1.4-0.1,1.4l0,0
		c0,0.7-0.1,1.6-0.2,2.6c-0.3,3.4-0.5,8.4-1.3,14.2c-0.9,7.2-2.4,15.8-4.6,24.9c4.7-6.6,11.8-13.8,20.6-20.9
		c2.1-1.6,4.3-3.1,6.4-4.5c2-1.4,4.1-2.7,6.1-3.9c4.1-2.4,8.1-4.3,12-5.7c7.7-2.9,14.5-3.7,19.2-2.3c1.4,10.7-6.5,30.7-25.1,43.3
		c-8.9,6.4-18.7,9.7-26.6,11c-6.9,1.1-12.8,0.6-17-0.9c-0.2,0.5-0.3,1-0.5,1.6c-5,15.1-11.4,29.8-17.1,40.5c-0.2,0.4-0.4,0.7-0.5,1
		c6.2-5.7,14.6-11.5,25.5-16.7c10.1-4.5,19.5-7.5,27.8-8.5C314.6,297.4,321.4,298,325.7,300.3z"/>
</g>
<g id="Ebene_2">
</g>
</svg>
